<svg width="60" height="76" viewBox="0 0 60 76" fill="none" xmlns="http://www.w3.org/2000/svg">
<path d="M5.15918 17.1221C5.15918 11.5992 9.63633 7.12207 15.1592 7.12207H55.1367V69.4967C55.1367 72.0115 52.2284 73.4102 50.2639 71.8403L32.6343 57.7518C31.5616 56.8945 30.0438 56.875 28.9495 57.7044L9.9712 72.0875C7.99543 73.5849 5.15918 72.1756 5.15918 69.6965V17.1221Z" fill="#B239E8"/>
<path d="M60 10.1221C60 4.59922 55.5228 0.12207 50 0.12207H10.0225V11.3693H60V10.1221Z" fill="#B239E8"/>
<path d="M0.0449219 10.1221C0.0449219 4.59922 4.52207 0.12207 10.0449 0.12207H50.0225V62.4967C50.0225 65.0115 47.1141 66.4102 45.1496 64.8403L27.5201 50.7518C26.4474 49.8945 24.9296 49.875 23.8352 50.7044L4.85694 65.0875C2.88117 66.5849 0.0449219 65.1756 0.0449219 62.6965V10.1221Z" fill="white"/>
</svg>
