<svg width="22" height="21" viewBox="0 0 22 21" fill="none" xmlns="http://www.w3.org/2000/svg">
<path d="M11 21C13.7848 21 16.4555 19.8938 18.4246 17.9246C20.3938 15.9555 21.5 13.2848 21.5 10.5C21.5 7.71523 20.3938 5.04451 18.4246 3.07538C16.4555 1.10625 13.7848 0 11 0C8.21523 0 5.54451 1.10625 3.57538 3.07538C1.60625 5.04451 0.5 7.71523 0.5 10.5C0.5 13.2848 1.60625 15.9555 3.57538 17.9246C5.54451 19.8938 8.21523 21 11 21ZM16.291 8.81836C16.6766 9.20391 16.6766 9.82734 16.291 10.2088C15.9055 10.5902 15.282 10.5943 14.9006 10.2088L11.9885 7.29668L11.9844 16.0781C11.9844 16.6236 11.5455 17.0625 11 17.0625C10.4545 17.0625 10.0156 16.6236 10.0156 16.0781V7.29668L7.10352 10.2088C6.71797 10.5943 6.09453 10.5943 5.71309 10.2088C5.33164 9.82324 5.32754 9.1998 5.71309 8.81836L10.3027 4.22461C10.6883 3.83906 11.3117 3.83906 11.6932 4.22461L16.291 8.81836Z" fill="white"/>
</svg>
