<svg width="32" height="33" viewBox="0 0 32 33" fill="none" xmlns="http://www.w3.org/2000/svg">
<g clip-path="url(#clip0_71_522)">
<path d="M16 32.3223C20.2435 32.3223 24.3131 30.6366 27.3137 27.636C30.3143 24.6354 32 20.5657 32 16.3223C32 12.0788 30.3143 8.00914 27.3137 5.00856C24.3131 2.00798 20.2435 0.322266 16 0.322266C11.7565 0.322266 7.68687 2.00798 4.68629 5.00856C1.68571 8.00914 0 12.0788 0 16.3223C0 20.5657 1.68571 24.6354 4.68629 27.636C7.68687 30.6366 11.7565 32.3223 16 32.3223ZM24.0625 13.7598C24.65 14.3473 24.65 15.2973 24.0625 15.8785C23.475 16.4598 22.525 16.466 21.9438 15.8785L17.5063 11.441L17.5 24.8223C17.5 25.6535 16.8312 26.3223 16 26.3223C15.1687 26.3223 14.5 25.6535 14.5 24.8223V11.441L10.0625 15.8785C9.475 16.466 8.525 16.466 7.94375 15.8785C7.3625 15.291 7.35625 14.341 7.94375 13.7598L14.9375 6.75977C15.525 6.17227 16.475 6.17227 17.0562 6.75977L24.0625 13.7598Z" fill="white"/>
</g>
<defs>
<clipPath id="clip0_71_522">
<rect width="32" height="32" fill="white" transform="translate(0 0.322266)"/>
</clipPath>
</defs>
</svg>
