<svg width="85" height="44" viewBox="0 0 85 44" fill="none" xmlns="http://www.w3.org/2000/svg">
<path fill-rule="evenodd" clip-rule="evenodd" d="M16.8348 10.5502C17.6976 9.59226 18.9057 9.01631 20.1932 8.94903L77.5063 5.94538C79.062 5.86879 80.5847 6.41075 81.7422 7.45294C82.8997 8.49513 83.5978 9.9529 83.6843 11.508L84.8681 34.0967C84.9447 35.6523 84.4027 37.1751 83.3605 38.3326C82.3183 39.49 80.8606 40.1882 79.3054 40.2746L21.9923 43.2783C20.7048 43.346 19.4432 42.8995 18.4849 42.037L5.52927 30.3717C4.57109 29.5089 3.99487 28.3009 3.92739 27.0133C3.85991 25.7257 4.30669 24.464 5.16945 23.5058L16.8348 10.5502ZM23.2371 23.4198C21.7406 22.0723 19.4352 22.1931 18.0877 23.6896C16.7403 25.1861 16.8611 27.4916 18.3576 28.839C19.8541 30.1864 22.1595 30.0656 23.507 28.5691C24.8544 27.0727 24.7336 24.7672 23.2371 23.4198Z" fill="#8536A8"/>
<path fill-rule="evenodd" clip-rule="evenodd" d="M14.4201 7.88151C15.1882 6.93337 16.3015 6.32916 17.5151 6.2018L71.5369 0.523872C73.0035 0.374424 74.4696 0.811239 75.6152 1.73895C76.7608 2.66666 77.4929 4.00993 77.6517 5.4755L79.8895 26.767C80.0389 28.2335 79.6021 29.6996 78.6744 30.8453C77.7467 31.9909 76.4034 32.723 74.9379 32.8817L20.916 38.5597C19.7025 38.6874 18.4879 38.3279 17.5394 37.5601L4.71632 27.1762C3.76794 26.4082 3.16348 25.2949 3.03592 24.0813C2.90836 22.8676 3.26815 21.653 4.03614 20.7046L14.4201 7.88151ZM21.109 19.7286C19.6278 18.5291 17.4547 18.7575 16.2553 20.2387C15.0559 21.7199 15.2843 23.893 16.7655 25.0924C18.2466 26.2918 20.4197 26.0634 21.6191 24.5823C22.8186 23.1011 22.5902 20.928 21.109 19.7286Z" fill="white"/>
<path d="M28.6818 21.2204L35.731 20.4795L35.9752 22.8027L28.926 23.5436L28.6818 21.2204ZM37.5645 23.9388L40.1855 20.864C40.6635 20.3097 41.0343 19.8578 41.2979 19.5083C41.5709 19.1471 41.7572 18.8272 41.8566 18.5487C41.9666 18.269 42.006 17.9806 41.9748 17.6836C41.9369 17.3229 41.8125 17.0571 41.6014 16.8862C41.3893 16.7047 41.0923 16.6341 40.7104 16.6742C40.477 16.6987 40.2768 16.7841 40.1099 16.9304C39.9418 17.066 39.8175 17.2614 39.7371 17.5165C39.6556 17.7611 39.6284 18.0642 39.6557 18.426L36.9825 18.707C36.9056 17.7713 37.0221 16.9921 37.3321 16.3697C37.642 15.7472 38.0848 15.2663 38.6605 14.9269C39.2351 14.5769 39.883 14.364 40.6044 14.2882C41.4955 14.1945 42.2383 14.272 42.8329 14.5205C43.4275 14.7691 43.8841 15.134 44.2028 15.6153C44.5216 16.0967 44.7127 16.6396 44.7763 17.2443C44.8264 17.7217 44.7984 18.1697 44.6923 18.5885C44.5956 18.9955 44.3951 19.4348 44.0908 19.9066C43.7853 20.3677 43.345 20.9234 42.7698 21.5738L41.2881 23.2418L45.5526 22.7936L45.7967 25.1168L37.7769 25.9597L37.5645 23.9388ZM46.7383 19.387C46.6492 18.5383 46.6473 17.7555 46.7329 17.0387C46.8184 16.3218 47.01 15.6957 47.3077 15.1603C47.6053 14.6249 48.0266 14.1945 48.5716 13.8691C49.1261 13.532 49.817 13.3199 50.6445 13.2329C51.4719 13.146 52.1866 13.2103 52.7884 13.4259C53.3891 13.6309 53.8907 13.9643 54.2932 14.4261C54.7063 14.8868 55.0292 15.4588 55.2619 16.1422C55.4946 16.8257 55.6555 17.5917 55.7447 18.4404C55.8351 19.2996 55.8374 20.0877 55.7519 20.8046C55.6664 21.5214 55.4695 22.1481 55.1612 22.6846C54.8635 23.22 54.4422 23.6504 53.8972 23.9758C53.3523 24.3012 52.6661 24.5074 51.8386 24.5944C51.0112 24.6813 50.2918 24.6229 49.6805 24.419C49.0797 24.214 48.5781 23.8806 48.1757 23.4188C47.7732 22.957 47.4556 22.3844 47.2229 21.701C46.9902 21.0176 46.8287 20.2462 46.7383 19.387ZM52.9283 18.7364C52.8825 18.3014 52.8231 17.8894 52.7501 17.5002C52.6759 17.1005 52.5643 16.7529 52.4152 16.4575C52.2768 16.161 52.0867 15.9343 51.845 15.7774C51.6033 15.6205 51.2862 15.5626 50.8937 15.6039C50.5012 15.6451 50.203 15.7676 49.9992 15.9714C49.7954 16.1752 49.6513 16.437 49.5669 16.7569C49.4932 17.0757 49.4616 17.4383 49.4721 17.8448C49.4815 18.2406 49.5091 18.656 49.5548 19.0909C49.6028 19.5471 49.6638 19.9751 49.738 20.3748C49.8111 20.764 49.9169 21.1068 50.0553 21.4033C50.2032 21.6881 50.398 21.9089 50.6397 22.0658C50.8804 22.2121 51.1969 22.2647 51.5894 22.2234C51.9819 22.1822 52.2806 22.065 52.4856 21.8718C52.6894 21.6681 52.8287 21.4121 52.9036 21.1039C52.988 20.784 53.0254 20.4261 53.016 20.0303C53.0054 19.6238 52.9762 19.1925 52.9283 18.7364ZM56.8211 15.3187C56.7274 14.4277 56.9112 13.7273 57.3725 13.2176C57.8337 12.7079 58.4516 12.4124 59.226 12.331C59.9791 12.2518 60.6343 12.4136 61.1914 12.8162C61.7486 13.2188 62.074 13.8657 62.1676 14.7568C62.2624 15.6585 62.0792 16.3642 61.6179 16.8739C61.1567 17.3835 60.5495 17.6779 59.7963 17.7571C59.0219 17.8385 58.3561 17.6779 57.799 17.2752C57.2418 16.8726 56.9159 16.2204 56.8211 15.3187ZM59.384 13.9876C59.14 14.0132 58.9633 14.1176 58.8538 14.3007C58.7432 14.4732 58.7075 14.7451 58.7465 15.1164C58.7844 15.4771 58.8765 15.7409 59.0227 15.9078C59.1679 16.0642 59.3624 16.1295 59.6064 16.1039C59.8398 16.0794 60.0165 15.975 60.1366 15.7908C60.2555 15.5959 60.2961 15.3182 60.2582 14.9575C60.2191 14.5862 60.1223 14.3282 59.9677 14.1836C59.8119 14.0284 59.6174 13.963 59.384 13.9876ZM64.7593 11.862L67.4484 11.5794L62.5088 23.3603L59.8196 23.6429L64.7593 11.862ZM65.1147 20.4479C65.021 19.5568 65.2048 18.8565 65.6661 18.3468C66.1273 17.8371 66.7398 17.5421 67.5036 17.4619C68.2674 17.3816 68.9226 17.5433 69.4691 17.9471C70.0262 18.3497 70.3516 18.9966 70.4453 19.8877C70.5401 20.7894 70.3568 21.495 69.8956 22.0047C69.4449 22.5133 68.8377 22.8077 68.0739 22.888C67.3101 22.9682 66.6497 22.8071 66.0925 22.4044C65.5354 22.0018 65.2094 21.3496 65.1147 20.4479ZM67.6616 19.1184C67.4283 19.1429 67.2515 19.2473 67.1315 19.4315C67.022 19.6147 66.9862 19.8866 67.0242 20.2472C67.0632 20.6185 67.1553 20.8823 67.3004 21.0387C67.4561 21.1939 67.6507 21.2593 67.8841 21.2348C68.1175 21.2102 68.2889 21.1064 68.3983 20.9233C68.5184 20.7391 68.5589 20.4613 68.5199 20.09C68.482 19.7293 68.3852 19.4714 68.2294 19.3161C68.0843 19.1598 67.895 19.0939 67.6616 19.1184Z" fill="#B239E8"/>
</svg>
