<svg width="64" height="33" viewBox="0 0 64 33" fill="none" xmlns="http://www.w3.org/2000/svg">
<path fill-rule="evenodd" clip-rule="evenodd" d="M12.5009 7.67167C13.1481 6.95323 14.0541 6.52127 15.0198 6.47081L58.0046 4.21807C59.1714 4.16063 60.3134 4.56709 61.1815 5.34874C62.0496 6.13038 62.5732 7.22371 62.6381 8.39006L63.5259 25.3315C63.5834 26.4983 63.1769 27.6404 62.3953 28.5085C61.6136 29.3766 60.5203 29.9002 59.354 29.965L16.3691 32.2178C15.4035 32.2685 14.4573 31.9336 13.7386 31.2868L4.02183 22.5378C3.30319 21.8907 2.87103 20.9847 2.82042 20.019C2.76981 19.0533 3.1049 18.107 3.75196 17.3884L12.5009 7.67167ZM17.3027 17.3236C16.1803 16.313 14.4512 16.4036 13.4407 17.526C12.4301 18.6484 12.5207 20.3775 13.6431 21.388C14.7654 22.3986 16.4945 22.308 17.5051 21.1856C18.5157 20.0633 18.4251 18.3342 17.3027 17.3236Z" fill="#8536A8"/>
<path fill-rule="evenodd" clip-rule="evenodd" d="M10.6899 5.66894C11.266 4.95784 12.101 4.50469 13.0112 4.40916L53.5276 0.150716C54.6275 0.0386308 55.7271 0.366242 56.5863 1.06203C57.4455 1.75781 57.9946 2.76526 58.1136 3.86444L59.792 19.833C59.9041 20.933 59.5765 22.0325 58.8807 22.8918C58.1849 23.751 57.1775 24.3001 56.0783 24.4191L15.5619 28.6776C14.6517 28.7734 13.7408 28.5037 13.0295 27.9279L3.41212 20.14C2.70083 19.564 2.24749 18.729 2.15182 17.8188C2.05615 16.9085 2.32599 15.9976 2.90198 15.2863L10.6899 5.66894ZM15.7066 14.554C14.5957 13.6545 12.9659 13.8258 12.0663 14.9366C11.1668 16.0475 11.3381 17.6773 12.449 18.5769C13.5598 19.4765 15.1896 19.3052 16.0892 18.1943C16.9888 17.0834 16.8175 15.4536 15.7066 14.554Z" fill="white"/>
<path d="M21.7331 15.3863L27.0199 14.8306L27.2031 16.573L21.9162 17.1287L21.7331 15.3863ZM28.3951 17.4251L30.3608 15.119C30.7193 14.7032 30.9974 14.3643 31.1951 14.1022C31.3999 13.8313 31.5396 13.5914 31.6141 13.3824C31.6967 13.1727 31.7262 12.9564 31.7028 12.7336C31.6744 12.4631 31.581 12.2638 31.4228 12.1356C31.2637 11.9995 31.0409 11.9465 30.7545 11.9766C30.5794 11.995 30.4293 12.059 30.3041 12.1687C30.178 12.2705 30.0849 12.417 30.0245 12.6084C29.9634 12.7918 29.943 13.0191 29.9635 13.2905L27.9585 13.5012C27.9009 12.7994 27.9883 12.2151 28.2207 11.7482C28.4532 11.2813 28.7853 10.9207 29.2171 10.6661C29.648 10.4036 30.134 10.244 30.675 10.1871C31.3433 10.1169 31.9004 10.175 32.3464 10.3614C32.7923 10.5478 33.1348 10.8215 33.3738 11.1825C33.6129 11.5435 33.7562 11.9507 33.8039 12.4042C33.8415 12.7622 33.8205 13.0983 33.7409 13.4123C33.6684 13.7176 33.518 14.0471 33.2898 14.4009C33.0607 14.7467 32.7304 15.1635 32.2991 15.6513L31.1877 16.9023L34.3861 16.5661L34.5692 18.3085L28.5544 18.9407L28.3951 17.4251ZM35.2755 14.0112C35.2086 13.3747 35.2072 12.7876 35.2713 12.25C35.3355 11.7123 35.4792 11.2427 35.7024 10.8412C35.9257 10.4396 36.2417 10.1169 36.6504 9.87279C37.0663 9.61994 37.5845 9.4609 38.205 9.39567C38.8256 9.33045 39.3616 9.37868 39.813 9.54039C40.2635 9.69414 40.6397 9.94418 40.9416 10.2905C41.2514 10.636 41.4936 11.0651 41.6681 11.5776C41.8426 12.0902 41.9633 12.6647 42.0302 13.3012C42.098 13.9457 42.0998 14.5367 42.0356 15.0744C41.9715 15.612 41.8238 16.082 41.5926 16.4844C41.3693 16.8859 41.0533 17.2087 40.6446 17.4528C40.2359 17.6969 39.7212 17.8515 39.1006 17.9167C38.4801 17.982 37.9405 17.9381 37.482 17.7852C37.0315 17.6315 36.6553 17.3814 36.3534 17.0351C36.0516 16.6887 35.8134 16.2593 35.6389 15.7467C35.4643 15.2341 35.3432 14.6556 35.2755 14.0112ZM39.9179 13.5232C39.8836 13.197 39.839 12.888 39.7842 12.5961C39.7286 12.2963 39.6449 12.0356 39.5331 11.8141C39.4293 11.5917 39.2868 11.4217 39.1055 11.304C38.9242 11.1863 38.6863 11.1429 38.3919 11.1739C38.0976 11.2048 37.8739 11.2967 37.7211 11.4495C37.5682 11.6023 37.4602 11.7987 37.3969 12.0386C37.3416 12.2777 37.3179 12.5497 37.3258 12.8545C37.3329 13.1514 37.3535 13.463 37.3878 13.7892C37.4238 14.1313 37.4696 14.4522 37.5252 14.7521C37.58 15.0439 37.6593 15.3011 37.7632 15.5234C37.8741 15.737 38.0202 15.9026 38.2015 16.0203C38.382 16.1301 38.6194 16.1695 38.9138 16.1385C39.2081 16.1076 39.4322 16.0197 39.5859 15.8748C39.7387 15.722 39.8432 15.53 39.8994 15.2989C39.9627 15.059 39.9908 14.7906 39.9837 14.4937C39.9758 14.1888 39.9538 13.8654 39.9179 13.5232ZM42.8375 10.96C42.7673 10.2917 42.9051 9.76641 43.2511 9.38416C43.597 9.0019 44.0604 8.78025 44.6412 8.71921C45.206 8.65984 45.6974 8.78114 46.1153 9.08312C46.5331 9.38509 46.7772 9.87024 46.8474 10.5386C46.9185 11.2148 46.7811 11.7441 46.4351 12.1264C46.0892 12.5086 45.6338 12.7294 45.0689 12.7888C44.4881 12.8498 43.9888 12.7294 43.5709 12.4274C43.1531 12.1254 42.9086 11.6363 42.8375 10.96ZM44.7597 9.96163C44.5767 9.98086 44.4441 10.0591 44.362 10.1965C44.2791 10.3259 44.2523 10.5298 44.2816 10.8082C44.31 11.0788 44.379 11.2766 44.4887 11.4018C44.5976 11.5191 44.7435 11.5681 44.9265 11.5489C45.1015 11.5305 45.2341 11.4522 45.3241 11.314C45.4133 11.1679 45.4437 10.9596 45.4153 10.6891C45.386 10.4106 45.3134 10.2171 45.1974 10.1087C45.0806 9.99224 44.9347 9.94323 44.7597 9.96163ZM48.7911 8.36749L50.808 8.15551L47.1033 16.9912L45.0864 17.2031L48.7911 8.36749ZM49.0577 14.8069C48.9875 14.1386 49.1253 13.6133 49.4712 13.231C49.8172 12.8488 50.2766 12.6276 50.8494 12.5674C51.4223 12.5071 51.9136 12.6284 52.3235 12.9313C52.7414 13.2332 52.9854 13.7184 53.0557 14.3867C53.1268 15.063 52.9893 15.5922 52.6434 15.9745C52.3054 16.3559 51.85 16.5767 51.2771 16.6369C50.7043 16.6971 50.2089 16.5763 49.7911 16.2743C49.3732 15.9723 49.1288 15.4832 49.0577 14.8069ZM50.9679 13.8098C50.7929 13.8282 50.6603 13.9064 50.5703 14.0446C50.4882 14.182 50.4614 14.3859 50.4898 14.6564C50.5191 14.9348 50.5881 15.1327 50.697 15.25C50.8138 15.3664 50.9597 15.4154 51.1348 15.397C51.3098 15.3786 51.4384 15.3008 51.5205 15.1634C51.6105 15.0253 51.6409 14.8169 51.6116 14.5385C51.5832 14.268 51.5106 14.0745 51.3938 13.9581C51.2849 13.8408 51.143 13.7914 50.9679 13.8098Z" fill="#B239E8"/>
</svg>
