<svg width="12" height="10" viewBox="0 0 12 10" fill="none" xmlns="http://www.w3.org/2000/svg">
<path fill-rule="evenodd" clip-rule="evenodd" d="M5.23977 0.197016C5.46903 0.0634268 5.72962 -0.00695801 5.99496 -0.00695801C6.26031 -0.00695801 6.5209 0.0634266 6.75016 0.197016C6.97913 0.330437 7.16866 0.522133 7.29947 0.752589L7.29996 0.753464L11.298 7.74999C11.4292 7.9777 11.4989 8.23676 11.4989 8.49961C11.499 8.76278 11.4298 9.02134 11.2984 9.24932C11.1669 9.47731 10.9778 9.66669 10.7499 9.79845C10.5221 9.93021 10.2637 9.99972 10.0005 9.99999H2.00202C1.73841 10.0019 1.47894 9.93437 1.24974 9.80409C1.01983 9.67341 0.82855 9.48427 0.695298 9.25584C0.562047 9.02741 0.491556 8.76781 0.49097 8.50335C0.490386 8.23931 0.559509 7.9798 0.691345 7.75104L0.691964 7.74997L4.68996 0.753464L4.69046 0.752589C4.82127 0.522132 5.0108 0.330436 5.23977 0.197016ZM5.99996 2.99999C6.27611 2.99999 6.49996 3.22385 6.49996 3.49999V5.49999C6.49996 5.77613 6.27611 5.99999 5.99996 5.99999C5.72382 5.99999 5.49996 5.77613 5.49996 5.49999V3.49999C5.49996 3.22385 5.72382 2.99999 5.99996 2.99999ZM5.49996 7.49999C5.49996 7.22385 5.72382 6.99999 5.99996 6.99999H6.00496C6.28111 6.99999 6.50496 7.22385 6.50496 7.49999C6.50496 7.77613 6.28111 7.99999 6.00496 7.99999H5.99996C5.72382 7.99999 5.49996 7.77613 5.49996 7.49999Z" fill="#CE2025"/>
</svg>
