<svg width="156" height="59" viewBox="0 0 156 59" fill="none" xmlns="http://www.w3.org/2000/svg">
<path d="M147.858 23.0063H155.762L134 58.0261H126.546L133.7 46.8698L128.547 23.0063H136.702L139.303 37.9648L147.858 23.0063Z" fill="white"/>
<path d="M108.876 26.8584C109.843 25.6911 111.077 24.7072 112.578 23.9067C114.112 23.0729 115.847 22.656 117.781 22.656C119.882 22.656 121.65 23.1896 123.084 24.2569C124.518 25.2908 125.502 26.775 126.036 28.7094C126.603 30.6105 126.619 32.8784 126.086 35.5133C125.585 38.1147 124.668 40.3827 123.334 42.3171C122.033 44.2515 120.449 45.7524 118.582 46.8196C116.714 47.8535 114.729 48.3705 112.628 48.3705C111.027 48.3705 109.643 48.037 108.476 47.3699C107.308 46.6695 106.491 45.8357 106.024 44.8685L104.974 48.0203H98.3701L105.524 12H112.828L109.877 26.9084L108.876 26.8584ZM118.231 35.5133C118.632 33.6789 118.481 32.1947 117.781 31.0607C117.081 29.9268 115.963 29.3598 114.429 29.3598C113.529 29.3598 112.628 29.6099 111.728 30.1102C110.86 30.5771 110.11 31.2609 109.476 32.1614C108.843 33.0619 108.392 34.1792 108.126 35.5133C107.892 36.8473 107.909 37.9646 108.176 38.8651C108.442 39.7657 108.909 40.4494 109.576 40.9163C110.243 41.3832 111.061 41.6167 112.028 41.6167C113.028 41.6167 113.946 41.3666 114.779 40.8663C115.647 40.3326 116.38 39.6156 116.981 38.7151C117.581 37.7812 117.998 36.7139 118.231 35.5133Z" fill="white"/>
<path d="M82.3583 48.3707C79.9236 48.3707 77.8391 47.8538 76.1047 46.8199C74.4038 45.786 73.1864 44.3018 72.4527 42.3674C71.7523 40.4329 71.6522 38.1483 72.1525 35.5135C72.6862 32.8787 73.7034 30.6107 75.2042 28.7097C76.7051 26.7752 78.5228 25.2911 80.6573 24.2572C82.8252 23.1899 85.1265 22.6562 87.5612 22.6562C90.0293 22.6562 92.1304 23.1899 93.8648 24.2572C95.5991 25.2911 96.8331 26.7752 97.5668 28.7097C98.3339 30.6107 98.4674 32.8787 97.9671 35.5135C97.4334 38.1483 96.3995 40.4329 94.8653 42.3674C93.3311 44.3018 91.4634 45.786 89.2622 46.8199C87.0943 47.8538 84.793 48.3707 82.3583 48.3707ZM83.609 41.767C84.5095 41.767 85.3933 41.5336 86.2605 41.0666C87.161 40.5997 87.9448 39.916 88.6118 39.0155C89.3122 38.0816 89.7958 36.9143 90.0626 35.5135C90.3294 34.1127 90.3128 32.9621 90.0126 32.0616C89.7458 31.1277 89.2622 30.4273 88.5618 29.9604C87.8947 29.4934 87.111 29.26 86.2104 29.26C85.3433 29.26 84.4761 29.4934 83.609 29.9604C82.7752 30.4273 82.0414 31.1277 81.4077 32.0616C80.774 32.9621 80.3071 34.1127 80.0069 35.5135C79.7401 36.9143 79.7401 38.0816 80.0069 39.0155C80.2738 39.916 80.724 40.5997 81.3577 41.0666C81.9914 41.5336 82.7418 41.767 83.609 41.767Z" fill="white"/>
<path d="M66.6076 12H73.9118L66.7577 48.0203H59.4536L66.6076 12Z" fill="white"/>
<path d="M53.7628 23.0064H60.3666L56.1142 44.4185C55.5472 47.2535 54.3632 49.6715 52.5622 51.6726C50.7945 53.7071 48.4765 55.2746 45.6082 56.3753C42.74 57.4759 39.4047 58.0262 35.6026 58.0262L35.7527 51.9728C39.5215 51.9394 42.5065 51.3057 44.7077 50.0717C46.9423 48.871 48.2931 47.12 48.76 44.8187V44.7187L49.9607 44.1184C48.9935 45.2523 47.7428 46.2529 46.2086 47.12C44.6744 47.9538 42.9401 48.3707 41.0056 48.3707C38.9045 48.3707 37.1201 47.8538 35.6526 46.8199C34.2185 45.7526 33.2179 44.2518 32.6509 42.3173C32.1173 40.3829 32.1006 38.115 32.6009 35.5135C33.1345 32.8787 34.0684 30.6107 35.4025 28.7097C36.7366 26.7752 38.3208 25.2911 40.1552 24.2572C42.0229 23.1899 44.024 22.6562 46.1585 22.6562C47.2258 22.6562 48.193 22.823 49.0602 23.1565C49.9607 23.4567 50.7111 23.8736 51.3114 24.4072C51.9451 24.9075 52.4121 25.4912 52.7122 26.1582L53.7628 23.0064ZM40.4553 35.5135C40.0885 37.3479 40.2552 38.832 40.9556 39.966C41.6894 41.1 42.8233 41.667 44.3575 41.667C45.2247 41.667 46.0918 41.4168 46.959 40.9165C47.8262 40.4163 48.5766 39.7159 49.2103 38.8154C49.8773 37.8815 50.3442 36.7809 50.6111 35.5135C50.8445 34.1794 50.8112 33.0621 50.511 32.1616C50.2442 31.2611 49.7773 30.5774 49.1102 30.1105C48.4432 29.6435 47.6761 29.4101 46.8089 29.4101C45.775 29.4101 44.8245 29.6769 43.9573 30.2105C43.0901 30.7108 42.3564 31.4112 41.7561 32.3117C41.1557 33.2122 40.7221 34.2795 40.4553 35.5135Z" fill="white"/>
<ellipse cx="4.12095" cy="22.1775" rx="3.61475" ry="3.61476" transform="rotate(85.5716 4.12095 22.1775)" fill="#B239E8"/>
<ellipse cx="23.1868" cy="12.8197" rx="11.9338" ry="11.9339" transform="rotate(85.5716 23.1868 12.8197)" fill="#B239E8"/>
<ellipse cx="17.2062" cy="34.3546" rx="5.99369" ry="5.99369" transform="rotate(85.5716 17.2062 34.3546)" fill="#B239E8"/>
</svg>
