<svg width="24" height="24" viewBox="0 0 24 24" fill="none" xmlns="http://www.w3.org/2000/svg">
<path d="M12 21.3872C17.1844 21.3872 21.3872 17.1844 21.3872 12C21.3872 6.81559 17.1844 2.61279 12 2.61279C6.81559 2.61279 2.61279 6.81559 2.61279 12C2.61279 17.1844 6.81559 21.3872 12 21.3872Z" stroke="#404040" stroke-width="2" stroke-linecap="round" stroke-linejoin="round"/>
<path d="M12 2.61279C9.58959 5.14373 8.24512 8.5049 8.24512 12C8.24512 15.4951 9.58959 18.8563 12 21.3872C14.4104 18.8563 15.7549 15.4951 15.7549 12C15.7549 8.5049 14.4104 5.14373 12 2.61279Z" stroke="#404040" stroke-width="2" stroke-linecap="round" stroke-linejoin="round"/>
<path d="M2.61279 12H21.3872" stroke="#404040" stroke-width="2" stroke-linecap="round" stroke-linejoin="round"/>
<path d="M18 21C19.6569 21 21 19.6569 21 18C21 16.3431 19.6569 15 18 15C16.3431 15 15 16.3431 15 18C15 19.6569 16.3431 21 18 21Z" stroke="black" stroke-width="2" stroke-linecap="round" stroke-linejoin="round"/>
<path d="M22 22L20.5 20.5" stroke="black" stroke-width="2" stroke-linecap="round" stroke-linejoin="round"/>
</svg>
