<svg width="24" height="25" viewBox="0 0 24 25" fill="none" xmlns="http://www.w3.org/2000/svg">
<path d="M17 18.3223H18M12 18.3223H13M7 18.3223H8M2 20.3223C2 20.8527 2.21071 21.3614 2.58579 21.7365C2.96086 22.1116 3.46957 22.3223 4 22.3223H20C20.5304 22.3223 21.0391 22.1116 21.4142 21.7365C21.7893 21.3614 22 20.8527 22 20.3223V8.32227L15 13.3223V8.32227L8 13.3223V4.32227C8 3.79183 7.78929 3.28312 7.41421 2.90805C7.03914 2.53298 6.53043 2.32227 6 2.32227H4C3.46957 2.32227 2.96086 2.53298 2.58579 2.90805C2.21071 3.28312 2 3.79183 2 4.32227V20.3223Z" stroke="#222222" stroke-opacity="0.7" stroke-width="2" stroke-linecap="round" stroke-linejoin="round"/>
</svg>
