<svg width="21" height="25" viewBox="0 0 21 25" fill="none" xmlns="http://www.w3.org/2000/svg">
<g clip-path="url(#clip0_71_720)">
<path d="M10.5048 6.93203C7.52354 6.93203 5.11885 9.33672 5.11885 12.318C5.11885 15.2992 7.52354 17.7039 10.5048 17.7039C13.486 17.7039 15.8907 15.2992 15.8907 12.318C15.8907 9.33672 13.486 6.93203 10.5048 6.93203ZM10.5048 15.8195C8.57822 15.8195 7.00322 14.2492 7.00322 12.318C7.00322 10.3867 8.57353 8.81641 10.5048 8.81641C12.436 8.81641 14.0063 10.3867 14.0063 12.318C14.0063 14.2492 12.4313 15.8195 10.5048 15.8195ZM17.3673 6.71172C17.3673 7.41016 16.8048 7.96797 16.111 7.96797C15.4126 7.96797 14.8548 7.40547 14.8548 6.71172C14.8548 6.01797 15.4173 5.45547 16.111 5.45547C16.8048 5.45547 17.3673 6.01797 17.3673 6.71172ZM20.9345 7.98672C20.8548 6.30391 20.4704 4.81328 19.2376 3.58516C18.0095 2.35703 16.5188 1.97266 14.836 1.88828C13.1017 1.78984 7.90322 1.78984 6.16885 1.88828C4.49072 1.96797 3.0001 2.35234 1.76729 3.58047C0.534473 4.80859 0.154785 6.29922 0.0704102 7.98203C-0.0280273 9.71641 -0.0280273 14.9148 0.0704102 16.6492C0.150098 18.332 0.534473 19.8227 1.76729 21.0508C3.0001 22.2789 4.48604 22.6633 6.16885 22.7477C7.90322 22.8461 13.1017 22.8461 14.836 22.7477C16.5188 22.668 18.0095 22.2836 19.2376 21.0508C20.4657 19.8227 20.8501 18.332 20.9345 16.6492C21.0329 14.9148 21.0329 9.72109 20.9345 7.98672ZM18.6938 18.5102C18.3282 19.4289 17.6204 20.1367 16.697 20.507C15.3142 21.0555 12.0329 20.9289 10.5048 20.9289C8.97666 20.9289 5.69072 21.0508 4.3126 20.507C3.39385 20.1414 2.68604 19.4336 2.31572 18.5102C1.76729 17.1273 1.89385 13.8461 1.89385 12.318C1.89385 10.7898 1.77197 7.50391 2.31572 6.12578C2.68135 5.20703 3.38916 4.49922 4.3126 4.12891C5.69541 3.58047 8.97666 3.70703 10.5048 3.70703C12.0329 3.70703 15.3188 3.58516 16.697 4.12891C17.6157 4.49453 18.3235 5.20234 18.6938 6.12578C19.2423 7.50859 19.1157 10.7898 19.1157 12.318C19.1157 13.8461 19.2423 17.132 18.6938 18.5102Z" fill="white"/>
</g>
<defs>
<clipPath id="clip0_71_720">
<rect width="21" height="24" fill="white" transform="translate(0 0.322266)"/>
</clipPath>
</defs>
</svg>
