<svg width="21" height="25" viewBox="0 0 21 25" fill="none" xmlns="http://www.w3.org/2000/svg">
<g clip-path="url(#clip0_71_722)">
<path d="M4.70156 21.3223H0.346875V7.30195H4.70156V21.3223ZM2.52187 5.38945C1.12969 5.38945 0 4.23633 0 2.84414C0 2.1753 0.265697 1.53385 0.73864 1.06091C1.21158 0.587962 1.85303 0.322266 2.52187 0.322266C3.19072 0.322266 3.83217 0.587962 4.30511 1.06091C4.77805 1.53385 5.04375 2.1753 5.04375 2.84414C5.04375 4.23633 3.91406 5.38945 2.52187 5.38945ZM20.9953 21.3223H16.65V14.4973C16.65 12.8707 16.6172 10.7848 14.3859 10.7848C12.1219 10.7848 11.775 12.552 11.775 14.3801V21.3223H7.425V7.30195H11.6016V9.21445H11.6625C12.2438 8.11289 13.6641 6.95039 15.7828 6.95039C20.1891 6.95039 21 9.85195 21 13.6207V21.3223H20.9953Z" fill="white"/>
</g>
<defs>
<clipPath id="clip0_71_722">
<rect width="21" height="24" fill="white" transform="translate(0 0.322266)"/>
</clipPath>
</defs>
</svg>
