<svg width="24" height="25" viewBox="0 0 24 25" fill="none" xmlns="http://www.w3.org/2000/svg">
<path fill-rule="evenodd" clip-rule="evenodd" d="M1 12.3223C1 6.24713 5.92487 1.32227 12 1.32227C18.0751 1.32227 23 6.24713 23 12.3223C23 18.3974 18.0751 23.3223 12 23.3223C5.92487 23.3223 1 18.3974 1 12.3223ZM15.7071 9.61516C16.0976 10.0057 16.0976 10.6388 15.7071 11.0294L11.7071 15.0294C11.3166 15.4199 10.6834 15.4199 10.2929 15.0294L8.29289 13.0294C7.90237 12.6388 7.90237 12.0057 8.29289 11.6152C8.68342 11.2246 9.31658 11.2246 9.70711 11.6152L11 12.9081L14.2929 9.61516C14.6834 9.22463 15.3166 9.22463 15.7071 9.61516Z" fill="#34C759"/>
</svg>
