<svg width="24" height="25" viewBox="0 0 24 25" fill="none" xmlns="http://www.w3.org/2000/svg">
<path d="M7 20.9843V19.3223C7 18.7918 7.21071 18.2831 7.58579 17.9081C7.96086 17.533 8.46957 17.3223 9 17.3223H15C15.5304 17.3223 16.0391 17.533 16.4142 17.9081C16.7893 18.2831 17 18.7918 17 19.3223V20.9843M22 12.3223C22 17.8451 17.5228 22.3223 12 22.3223C6.47715 22.3223 2 17.8451 2 12.3223C2 6.79942 6.47715 2.32227 12 2.32227C17.5228 2.32227 22 6.79942 22 12.3223ZM15 10.3223C15 11.9791 13.6569 13.3223 12 13.3223C10.3431 13.3223 9 11.9791 9 10.3223C9 8.66541 10.3431 7.32227 12 7.32227C13.6569 7.32227 15 8.66541 15 10.3223Z" stroke="#222222" stroke-opacity="0.7" stroke-width="2" stroke-linecap="round" stroke-linejoin="round"/>
</svg>
